# xmcd
#
# Track frame offsets:
#	150
#	19235
#	34042
#	50247
#	64425
#	83127
#	98405
#	111070
#	129265
#	145012
#
# Disc length: 2120 seconds
#
# Revision: 1
# Processed by: cddbd v1.5.1PL0 Copyright (c) Steve Scherf et al.
# Submitted via: audiograbber 1.81.02
#
DISCID=8108460a
DTITLE=Verna Charlton - Third Time Lucky
DYEAR=1996
DGENRE=Country
TTITLE0=Bobbies' Song
TTITLE1=Third Time Lucky
TTITLE2=Too Little, Too Late
TTITLE3=My Baby's Gone
TTITLE4=Jackson
TTITLE5=Leaving's Not As Hard As The Goodbye
TTITLE6=Scars
TTITLE7=She's So Many Women
TTITLE8=Foolin' 'Round
TTITLE9=Drive, Drive, Drive
EXTD=
EXTT0=
EXTT1=
EXTT2=
EXTT3=
EXTT4=
EXTT5=
EXTT6=
EXTT7=
EXTT8=
EXTT9=
PLAYORDER=
